<svg height="35.059" viewBox="0 0 217 35.059" width="217" xmlns="http://www.w3.org/2000/svg"><path d="m25.083 0h191.917v35h-191.917z" fill="#389ad5"/><path d="m0 .029h142.25v35h-142.25z" fill="#31c4f3"/><g fill="#fff"><path d="m160.53 15.628a4.26 4.26 0 0 0 -1.32-.276.9.9 0 0 0 -.51.126.414.414 0 0 0 -.186.366.573.573 0 0 0 .36.522 6.372 6.372 0 0 0 1.14.4 11.024 11.024 0 0 1 1.464.51 2.7 2.7 0 0 1 1 .786 2.151 2.151 0 0 1 .426 1.392 2.369 2.369 0 0 1 -.462 1.481 2.769 2.769 0 0 1 -1.248.906 4.892 4.892 0 0 1 -1.758.3 6.744 6.744 0 0 1 -2.166-.366 6.019 6.019 0 0 1 -1.878-1l.936-1.9a5.6 5.6 0 0 0 1.554.93 4.277 4.277 0 0 0 1.578.378 1.121 1.121 0 0 0 .636-.155.508.508 0 0 0 .228-.444.581.581 0 0 0 -.372-.534 6.335 6.335 0 0 0 -1.152-.39 10.531 10.531 0 0 1 -1.452-.474 2.575 2.575 0 0 1 -1-.762 2.081 2.081 0 0 1 -.42-1.356 2.386 2.386 0 0 1 .432-1.422 2.724 2.724 0 0 1 1.218-.93 4.77 4.77 0 0 1 1.83-.324 6.76 6.76 0 0 1 1.884.27 6.245 6.245 0 0 1 1.632.714l-.924 1.92a8.056 8.056 0 0 0 -1.47-.668z"/><path d="m166.458 13.588h2.676l2.256 4.668 2.244-4.668h2.676v8.412h-2.2v-4.992l-1.92 4.164h-1.62l-1.92-4.164v4.992h-2.2z"/><path d="m180.366 13.588h2.5v8.412h-2.5z"/><path d="m186.918 13.588h2.5v6.324h3.528v2.088h-6.024z"/><path d="m196.446 13.588h6.876v1.92h-4.38v1.32h3.972v1.92h-3.972v1.332h4.5v1.92h-7z"/><path d="m15.789 13.469 2.461 6.539 2.455-6.539h1.916v8.531h-1.476v-2.812l.146-3.762-2.52 6.574h-1.06l-2.511-6.568.146 3.756v2.812h-1.479v-8.531z"/><path d="m31.894 20.014h-3.3l-.694 1.986h-1.543l3.223-8.531h1.33l3.228 8.531h-1.547zm-2.889-1.2h2.473l-1.236-3.539z"/><path d="m40.194 18.314-.967 1.025v2.661h-1.482v-8.531h1.482v4l.82-1.014 2.5-2.988h1.793l-3.17 3.779 3.348 4.754h-1.758z"/><path d="m52.936 18.191h-3.5v2.609h4.1v1.2h-5.587v-8.531h5.537v1.2h-4.054v2.351h3.5z"/><path d="m61.833 19.8a1.03 1.03 0 0 0 -.4-.867 4.759 4.759 0 0 0 -1.427-.615 6.89 6.89 0 0 1 -1.641-.691 2.189 2.189 0 0 1 -1.166-1.91 2.079 2.079 0 0 1 .841-1.7 3.4 3.4 0 0 1 2.183-.668 3.687 3.687 0 0 1 1.588.328 2.606 2.606 0 0 1 1.1.935 2.4 2.4 0 0 1 .4 1.345h-1.478a1.321 1.321 0 0 0 -.419-1.037 1.738 1.738 0 0 0 -1.2-.375 1.812 1.812 0 0 0 -1.128.309 1.029 1.029 0 0 0 -.4.864.931.931 0 0 0 .434.779 5.006 5.006 0 0 0 1.43.606 6.54 6.54 0 0 1 1.6.673 2.544 2.544 0 0 1 .885.867 2.258 2.258 0 0 1 .281 1.146 2.03 2.03 0 0 1 -.817 1.7 3.545 3.545 0 0 1 -2.218.63 4.168 4.168 0 0 1 -1.7-.343 2.859 2.859 0 0 1 -1.207-.946 2.358 2.358 0 0 1 -.431-1.406h1.482a1.38 1.38 0 0 0 .48 1.125 2.1 2.1 0 0 0 1.377.4 1.828 1.828 0 0 0 1.163-.313 1.011 1.011 0 0 0 .388-.836z"/><path d="m74.367 18.836v3.164h-1.482v-8.531h3.264a3.3 3.3 0 0 1 2.271.745 2.5 2.5 0 0 1 .841 1.971 2.42 2.42 0 0 1 -.823 1.953 3.457 3.457 0 0 1 -2.306.7zm0-1.2h1.781a1.754 1.754 0 0 0 1.207-.372 1.367 1.367 0 0 0 .416-1.075 1.475 1.475 0 0 0 -.422-1.1 1.626 1.626 0 0 0 -1.16-.425h-1.822z"/><path d="m88.181 18.191h-3.5v2.609h4.1v1.2h-5.586v-8.531h5.537v1.2h-4.055v2.351h3.5z"/><path d="m99.429 17.957a5.234 5.234 0 0 1 -.434 2.2 3.278 3.278 0 0 1 -1.239 1.453 3.635 3.635 0 0 1 -3.7 0 3.329 3.329 0 0 1 -1.256-1.444 5.07 5.07 0 0 1 -.449-2.166v-.48a5.189 5.189 0 0 1 .442-2.2 3.325 3.325 0 0 1 1.248-1.462 3.643 3.643 0 0 1 3.7-.006 3.283 3.283 0 0 1 1.245 1.441 5.178 5.178 0 0 1 .445 2.188zm-1.482-.445a3.729 3.729 0 0 0 -.536-2.174 1.892 1.892 0 0 0 -3.023 0 3.657 3.657 0 0 0 -.554 2.13v.492a3.7 3.7 0 0 0 .548 2.174 1.764 1.764 0 0 0 1.518.766 1.743 1.743 0 0 0 1.515-.75 3.781 3.781 0 0 0 .53-2.191z"/><path d="m105.027 18.836v3.164h-1.482v-8.531h3.264a3.3 3.3 0 0 1 2.271.745 2.5 2.5 0 0 1 .841 1.971 2.42 2.42 0 0 1 -.823 1.953 3.457 3.457 0 0 1 -2.306.7zm0-1.2h1.781a1.754 1.754 0 0 0 1.207-.372 1.367 1.367 0 0 0 .416-1.075 1.475 1.475 0 0 0 -.422-1.1 1.626 1.626 0 0 0 -1.16-.425h-1.822z"/><path d="m115.338 20.8h3.873v1.2h-5.355v-8.531h1.482z"/><path d="m127.974 18.191h-3.5v2.609h4.1v1.2h-5.578v-8.531h5.537v1.2h-4.063v2.351h3.5z"/></g></svg>